<svg width="670" height="663" viewBox="0 0 670 663" fill="none" xmlns="http://www.w3.org/2000/svg">
<path d="M334.779 620.496C331.701 620.496 328.622 620.4 325.544 620.207C322.658 620.207 319.772 620.111 316.886 619.919L301.301 648.202C298.8 653.012 295.337 656.571 290.912 658.88C286.679 661.189 281.965 661.862 276.77 660.9C271.383 659.938 266.957 657.629 263.494 653.974C260.223 650.51 258.203 645.989 257.434 640.409L252.816 608.663C240.695 605.2 229.439 601.159 219.049 596.542L195.095 617.61C190.863 621.265 186.341 623.382 181.531 623.959C176.721 624.729 172.007 623.767 167.39 621.073C162.772 618.379 159.501 614.724 157.577 610.106C155.653 605.681 155.172 600.775 156.134 595.387L162.772 564.218C158.154 560.563 153.44 556.811 148.63 552.963C144.013 549.115 139.587 544.978 135.355 540.553L105.629 552.674C94.4693 556.907 85.4264 554.791 78.4999 546.325C75.0367 542.284 73.1127 537.763 72.7279 532.761C72.3431 527.758 73.6899 522.948 76.7683 518.33L93.7959 491.202C90.3326 486.199 87.0618 481.101 83.9834 475.906C81.0973 470.711 78.3075 465.42 75.6139 460.033L43.579 460.61C38.1917 460.802 33.3817 459.648 29.1488 457.147C25.1084 454.645 22.2224 450.894 20.4908 445.891C18.7591 440.696 18.4705 435.79 19.625 431.172C20.9718 426.362 23.8578 422.226 28.283 418.762L53.3915 399.137C52.0447 393.365 50.794 387.593 49.6396 381.821C48.6776 375.857 47.908 369.7 47.3308 363.351L16.7389 353.538C11.3517 351.807 7.21504 349.017 4.32901 345.169C1.44299 341.128 -2.70605e-05 336.511 -2.70605e-05 331.316C-2.70605e-05 325.929 1.44299 321.311 4.32901 317.463C7.21504 313.422 11.3517 310.536 16.7389 308.805L47.3308 298.992C47.908 292.835 48.6776 286.871 49.6396 281.099C50.794 275.135 52.0447 269.17 53.3915 263.206L28.283 243.292C18.8553 235.981 16.2579 227.13 20.4908 216.741C22.2224 211.738 25.1084 207.89 29.1488 205.196C33.3817 202.503 38.1917 201.252 43.579 201.445L75.6139 202.599C78.3075 197.019 81.0973 191.632 83.9834 186.437C87.0618 181.242 90.3326 176.144 93.7959 171.141L76.7683 144.013C70.6114 133.815 71.0924 124.58 78.2113 116.307C81.8669 112.266 86.0036 109.573 90.6212 108.226C95.4313 106.879 100.434 107.264 105.629 109.38L135.066 121.502C139.684 117.461 144.205 113.517 148.63 109.669C153.248 105.821 157.962 102.069 162.772 98.4135L156.711 66.9558C155.557 61.5685 155.845 56.6623 157.577 52.237C159.501 47.6194 162.772 43.9638 167.39 41.2701C172.007 38.7689 176.817 37.7107 181.82 38.0955C186.822 38.4803 191.344 40.5967 195.384 44.4448L219.049 66.09C224.437 63.5887 229.92 61.2799 235.5 59.1635C241.272 57.0471 247.044 55.1231 252.816 53.3914L257.722 21.6451C258.492 16.2579 260.512 11.8327 263.783 8.36942C267.054 4.71379 271.383 2.40497 276.77 1.44296C281.965 0.673351 286.775 1.34676 291.2 3.46318C295.625 5.5796 299.089 9.13903 301.59 14.1415L316.886 42.4245C319.772 42.2321 322.658 42.1359 325.544 42.1359C328.622 41.9435 331.701 41.8473 334.779 41.8473C337.858 41.8473 340.84 41.9435 343.726 42.1359C346.804 42.1359 349.786 42.2321 352.672 42.4245L368.257 14.1415C370.951 9.33143 374.414 5.772 378.647 3.46318C382.88 1.15436 387.69 0.480949 393.077 1.44296C398.079 2.59737 402.312 4.90619 405.775 8.36942C409.239 11.8327 411.355 16.2579 412.125 21.6451L416.454 53.3914C422.418 55.1231 428.19 57.0471 433.77 59.1635C439.542 61.2799 445.122 63.4925 450.509 65.8014L474.463 44.7334C478.696 41.0777 483.217 38.9613 488.027 38.3841C492.837 37.6145 497.551 38.6727 502.169 41.5587C506.786 44.06 510.057 47.6194 511.981 52.237C514.098 56.6623 514.579 61.5685 513.424 66.9558L506.498 98.4135C511.308 101.877 516.022 105.532 520.639 109.38C525.257 113.228 529.778 117.269 534.204 121.502L564.218 109.669C575.378 105.436 584.324 107.553 591.058 116.018C594.522 120.251 596.446 124.869 596.83 129.871C597.215 134.681 595.868 139.491 592.79 144.301L576.051 171.141C579.322 176.144 582.4 181.242 585.286 186.437C588.365 191.632 591.251 196.923 593.944 202.31L625.979 201.733C631.559 201.541 636.369 202.695 640.409 205.196C644.45 207.698 647.336 211.546 649.067 216.741C650.991 221.743 651.28 226.649 649.933 231.459C648.586 236.269 645.7 240.31 641.275 243.581L615.878 263.206C617.417 268.978 618.668 274.846 619.63 280.81C620.784 286.775 621.746 292.835 622.516 298.992L652.819 308.805C658.014 310.536 662.055 313.422 664.941 317.463C668.019 321.311 669.558 325.929 669.558 331.316C669.558 336.511 668.019 341.128 664.941 345.169C662.055 349.017 658.014 351.807 652.819 353.538L622.516 363.351C621.746 369.7 620.784 375.857 619.63 381.821C618.668 387.593 617.417 393.365 615.878 399.137L641.275 419.051C645.7 422.514 648.586 426.555 649.933 431.172C651.472 435.79 651.28 440.6 649.356 445.603C647.432 450.605 644.45 454.549 640.409 457.435C636.369 460.129 631.559 461.379 625.979 461.187L594.233 460.033C591.347 465.228 588.365 470.519 585.286 475.906C582.4 481.101 579.322 486.199 576.051 491.202L592.79 518.619C595.676 523.237 597.023 528.047 596.83 533.049C596.638 537.859 594.714 542.284 591.058 546.325C587.787 550.365 583.747 552.963 578.937 554.117C574.127 555.464 569.125 555.079 563.93 552.963L534.204 540.841C529.971 544.882 525.546 548.826 520.928 552.674C516.31 556.715 511.5 560.466 506.498 563.93L513.136 595.387C514.098 600.967 513.617 605.969 511.693 610.395C509.961 614.82 506.786 618.379 502.169 621.073C497.551 623.574 492.741 624.632 487.739 624.248C482.736 623.863 478.311 621.746 474.463 617.898L450.509 596.542C445.122 598.851 439.542 601.063 433.77 603.18C428.19 605.296 422.418 607.124 416.454 608.663L411.836 640.698C411.066 646.085 409.046 650.607 405.775 654.262C402.505 657.918 398.176 660.131 392.788 660.9C387.593 661.67 382.783 660.996 378.358 658.88C373.933 656.764 370.47 653.3 367.968 648.49L352.672 619.919C349.786 620.111 346.804 620.207 343.726 620.207C340.84 620.4 337.858 620.496 334.779 620.496ZM334.779 550.943C365.179 550.943 393.558 545.267 419.917 533.915C446.468 522.371 469.845 506.594 490.047 486.584C510.25 466.382 526.027 443.101 537.378 416.742C548.73 390.191 554.406 361.715 554.406 331.316C554.406 300.916 548.73 272.441 537.378 245.889C526.027 219.338 510.25 196.057 490.047 176.048C469.845 155.845 446.468 140.068 419.917 128.717C393.558 117.365 365.179 111.689 334.779 111.689C304.572 111.689 276.097 117.365 249.353 128.717C222.801 140.068 199.424 155.845 179.222 176.048C159.212 196.057 143.532 219.338 132.18 245.889C120.828 272.441 115.152 300.916 115.152 331.316C115.152 361.715 120.828 390.191 132.18 416.742C143.532 443.101 159.212 466.382 179.222 486.584C199.424 506.594 222.801 522.371 249.353 533.915C276.097 545.267 304.572 550.943 334.779 550.943ZM270.998 281.388L178.934 123.233L232.037 96.9705L321.215 250.218L270.998 281.388ZM410.393 360.465V300.724H588.461V360.465H410.393ZM320.638 412.413L228.285 564.795L175.759 537.09L271.287 380.09L320.638 412.413ZM334.779 420.205C318.425 420.205 303.514 416.261 290.046 408.373C276.578 400.292 265.803 389.517 257.722 376.049C249.834 362.581 245.889 347.67 245.889 331.316C245.889 314.769 249.834 299.762 257.722 286.294C265.803 272.826 276.578 262.147 290.046 254.259C303.514 246.178 318.425 242.138 334.779 242.138C351.326 242.138 366.333 246.178 379.801 254.259C393.269 262.147 403.948 272.826 411.836 286.294C419.917 299.762 423.957 314.769 423.957 331.316C423.957 347.67 419.917 362.581 411.836 376.049C403.948 389.517 393.269 400.292 379.801 408.373C366.333 416.261 351.326 420.205 334.779 420.205ZM334.779 364.505C344.014 364.505 351.903 361.234 358.445 354.693C364.986 348.151 368.257 340.359 368.257 331.316C368.257 322.081 364.986 314.192 358.445 307.65C351.903 301.109 344.014 297.838 334.779 297.838C325.736 297.838 317.944 301.109 311.402 307.65C304.861 314.192 301.59 322.081 301.59 331.316C301.59 340.359 304.861 348.151 311.402 354.693C317.944 361.234 325.736 364.505 334.779 364.505Z" fill="black" style="fill:black;fill-opacity:1;"/>
</svg>
