<svg width="406" height="707" viewBox="0 0 406 707" fill="none" xmlns="http://www.w3.org/2000/svg">
<path d="M381.93 191.878C382.105 181.219 379.976 152.989 369.192 137.206C361.972 126.637 349.538 119.68 320.894 104.309C307.49 97.1166 289.31 94.2314 264.072 90.8906C232.001 86.6452 208.435 90.3416 197.478 93.2253C184.064 96.7556 173.183 103.182 161.643 111.326C125.144 137.08 117.774 154.261 113.74 164.549C103.205 191.421 109.875 221.084 116.601 234.592C123.767 248.985 142.744 259.459 181.258 268.945C213.993 277.008 239.131 278.285 249.984 282.684C275.741 293.125 291.004 315.327 301.396 331.542C309.471 344.141 314.223 360.841 318.777 380.091C321.437 391.337 322.94 405.984 323.953 423.893C326.141 462.581 323.871 490.901 321.065 504.661C316.007 529.47 306.934 539.357 300.957 545.367C295.286 551.071 250.099 549.375 223.027 547.771C217.12 547.42 208.605 539.29 193.261 525.439C183.591 516.711 171.336 503.205 160.498 489.786C127.424 448.833 122.401 433.365 115.24 425.989C112.856 423.534 108.221 424.79 103.31 426.55C96.2589 429.077 86.0718 441.466 72.1227 457.041C59.7106 470.9 49.4054 487.93 40.8193 503.713C36.0118 512.551 36.9476 523.219 37.6023 535.417C38.0704 544.139 44.7784 558.034 58.5983 585.888C67.2791 603.385 80.8192 626.956 88.8448 640.781C102.543 664.377 120.055 675.008 141.793 683.436C159.33 690.234 189.072 689.975 218.539 689.633C254.65 689.213 285.07 673.476 292.572 670.083C304.722 664.59 314.229 651.911 320.135 642.49C324.905 634.881 323.893 616.597 321.595 602.988C320.824 598.424 315.463 595.125 310.12 591.308C304.093 587.002 289.093 585.909 271.446 585.704C262.134 585.597 244.558 591.593 218.462 600.255C185.125 611.319 157.813 605.496 144.473 598.777C128.319 590.64 113.214 567.651 99.2468 546.737C95.9547 541.808 95.8382 537.667 96.3475 533.311C96.9051 528.542 100.362 524.578 103.267 521.246C110.466 512.988 137.015 505.933 156.432 502.099C172.304 498.966 183.398 506.351 218.487 532.62C236.201 545.881 248.391 557.437 259.658 563.746C280.855 575.616 300.093 576.256 310.362 575.555C314.315 575.286 315.461 573.245 316.423 570.797C322.364 555.687 318.497 535.937 315.751 527.655C310.885 512.974 282.098 489.29 270.083 479.935C266.494 477.14 261.68 475.77 247.385 472.4C214.44 464.632 186.879 459.188 173.871 451.434C155.143 440.271 134.412 418.08 116.031 398.067C107.579 388.865 101.078 375.717 89.9987 348.547C83.4492 332.486 78.3131 310.56 75.0128 294.287C71.7126 278.014 71.2465 267.739 71.8469 261.813C72.4473 255.887 74.1284 254.62 78.541 253.903C98.9615 250.584 115.757 258.395 134.647 267.104C139.849 269.502 146.383 275.423 162.14 291.632C173.339 303.152 189.319 322.977 200.791 335.099C225.101 360.787 245.162 364.756 263.303 368.054C293.5 373.545 312.035 363.637 334.19 352.948C350.407 345.123 361.201 328.233 364.763 317.109C366.969 310.22 364.524 303.258 361.148 297.458C356.455 289.392 349.751 284.975 342.703 280.568C328.622 271.763 305.379 264.07 283.82 257.36C271.769 253.61 248.968 238.401 215.761 215.672C194.017 200.789 184.884 190.242 175.61 175.062C168.329 163.144 157.937 141.438 150.482 124.423C128.992 75.3752 129.88 51.2776 127.98 46.6055C127.137 44.5312 125.586 43.513 122.694 42.9046C108.886 39.9999 93.3029 49.3013 74.9857 61.3383C55.6665 74.034 50.0743 93.9761 44.461 106.96C37.9898 121.929 29.0405 142.113 15.8505 181.148C10.935 195.695 10.7542 203.62 11.1179 206.118C12.5297 215.819 30.9389 180.281 55.8602 159.649C71.0274 147.093 93.1295 132.578 106.627 123.507C124.563 111.453 144.889 102.928 173.772 89.0867C200.909 76.0813 215.56 57.9484 223.96 47.3242C237.569 30.1111 239.324 16.0867 242.195 13.8472C251.818 6.34052 274.688 15.3698 284.573 21.4645C288.275 23.7468 292.802 37.5752 302.015 58.4961C317.094 92.7377 333.646 101.458 344.53 107.161C360.228 115.385 380.36 109.277 387.268 103.846C396.411 96.6578 395.004 59.6324 392.281 39.7066C390.42 26.0832 370.445 20.7025 362.238 18.3176C351.67 15.2464 336.414 19.0623 320.197 29.4464C305.436 38.8981 292.589 54.2225 280.952 68.7289C269.39 83.1408 259.743 105.978 249.885 129.942C243.452 145.583 242.245 158.942 242.357 170.652C242.507 186.384 265.825 199.791 289.442 210.122C298.564 214.112 309.75 213.941 321.662 222.457C343.468 238.047 335.86 269.558 338.849 276.986C344.14 290.136 360.434 302.187 365.535 309.918C372.806 320.939 370.924 338.075 361.7 364.776C348.71 402.381 332.373 425.259 331.481 428.625C330.541 432.17 330.485 439.214 331.047 448.217C332.072 464.636 362.784 485.912 374.221 496.353C376.746 498.658 375.642 502.863 374.44 505.996C371.142 514.587 322.617 514.453 295.837 512.034C292.631 511.745 289.839 508.915 277.398 498.95C264.957 488.986 243.237 470.895 217.1 441.484C190.964 412.072 161.069 371.888 141.364 344.488C112.37 304.17 102.158 287.322 97.4469 281.885C86.0618 268.746 72.1433 265.096 58.5011 265.003C53.0571 264.966 48.4913 270.357 43.8516 275.796C35.0595 286.104 31.8979 313.399 26.873 353.862C23.8743 378.01 24.7054 409.968 26.7049 438.581C28.7045 467.194 33.0593 491.614 40.3902 524.474C47.7211 557.334 57.896 597.893 63.6006 623.215C74.8462 673.132 70.3755 690.097 68.3314 692.692C66.1974 695.402 59.5852 695.554 54.3462 694.961C53.1442 694.826 55.7019 692.846 81.3704 690.125C107.039 687.405 155.946 683.447 185.771 679.981C215.596 676.514 224.859 673.659 246.344 661.86C267.829 650.061 301.256 629.405 319.306 617.834C343.423 602.373 352.502 572.844 357.285 554.802C359.787 545.364 365.67 530.317 372.437 522.444C375.06 519.391 379.347 519.148 382.302 519.653C385.385 520.179 385.498 534.845 386.86 557.34C388.957 580.487 390.222 602.334 390.135 618.122C390.047 624.07 389.872 625.826 389.234 632.037" stroke="url(#paint0_linear_1_19)" stroke-width="22" stroke-linecap="round"/>
<defs>
<linearGradient id="paint0_linear_1_19" x1="474.92" y1="646.921" x2="-178.832" y2="475.095" gradientUnits="userSpaceOnUse">
<stop stop-color="#3D3D3D"/>
<stop offset="0.490385" stop-color="#575757"/>
<stop offset="0.826923" stop-color="#6C6C6C"/>
<stop offset="1" stop-color="#A3A3A3"/>
</linearGradient>
</defs>
</svg>
